<mxfile host="app.diagrams.net" agent="Mozilla/5.0 (Windows NT 10.0; Win64; x64) AppleWebKit/537.36 (KHTML, like Gecko) Chrome/139.0.0.0 Safari/537.36" version="28.1.2">
  <diagram name="Página-1" id="SDIxHXBPP-fVtb4EgMxf">
    <mxGraphModel dx="1613" dy="729" grid="1" gridSize="10" guides="1" tooltips="1" connect="1" arrows="1" fold="1" page="1" pageScale="1" pageWidth="827" pageHeight="1169" math="0" shadow="0">
      <root>
        <mxCell id="0" />
        <mxCell id="1" parent="0" />
        <mxCell id="ZPcoJ0gb0Kkz47UQnkc6-5" value="&lt;i&gt;Vehiculo&lt;/i&gt;" style="swimlane;fontStyle=1;align=center;verticalAlign=top;childLayout=stackLayout;horizontal=1;startSize=26;horizontalStack=0;resizeParent=1;resizeParentMax=0;resizeLast=0;collapsible=1;marginBottom=0;whiteSpace=wrap;html=1;" vertex="1" parent="1">
          <mxGeometry x="320" width="160" height="220" as="geometry" />
        </mxCell>
        <mxCell id="ZPcoJ0gb0Kkz47UQnkc6-6" value="# patente: string&lt;div&gt;# color: string&lt;/div&gt;&lt;div&gt;# modelo: string&lt;br&gt;# cantKm: number&lt;/div&gt;" style="text;strokeColor=none;fillColor=none;align=left;verticalAlign=top;spacingLeft=4;spacingRight=4;overflow=hidden;rotatable=0;points=[[0,0.5],[1,0.5]];portConstraint=eastwest;whiteSpace=wrap;html=1;" vertex="1" parent="ZPcoJ0gb0Kkz47UQnkc6-5">
          <mxGeometry y="26" width="160" height="64" as="geometry" />
        </mxCell>
        <mxCell id="ZPcoJ0gb0Kkz47UQnkc6-7" value="" style="line;strokeWidth=1;fillColor=none;align=left;verticalAlign=middle;spacingTop=-1;spacingLeft=3;spacingRight=3;rotatable=0;labelPosition=right;points=[];portConstraint=eastwest;strokeColor=inherit;" vertex="1" parent="ZPcoJ0gb0Kkz47UQnkc6-5">
          <mxGeometry y="90" width="160" height="20" as="geometry" />
        </mxCell>
        <mxCell id="ZPcoJ0gb0Kkz47UQnkc6-8" value="+ constructor(patente: string, color:string, modelo:string, cantKm:number)&lt;div&gt;&lt;br&gt;+ &lt;i&gt;avanzar(): void&lt;br&gt;+ constultarKm(): void&lt;/i&gt;&lt;/div&gt;" style="text;strokeColor=none;fillColor=none;align=left;verticalAlign=top;spacingLeft=4;spacingRight=4;overflow=hidden;rotatable=0;points=[[0,0.5],[1,0.5]];portConstraint=eastwest;whiteSpace=wrap;html=1;" vertex="1" parent="ZPcoJ0gb0Kkz47UQnkc6-5">
          <mxGeometry y="110" width="160" height="110" as="geometry" />
        </mxCell>
        <mxCell id="ZPcoJ0gb0Kkz47UQnkc6-10" value="Moto" style="swimlane;fontStyle=1;align=center;verticalAlign=top;childLayout=stackLayout;horizontal=1;startSize=26;horizontalStack=0;resizeParent=1;resizeParentMax=0;resizeLast=0;collapsible=1;marginBottom=0;whiteSpace=wrap;html=1;" vertex="1" parent="1">
          <mxGeometry x="70" y="320" width="250" height="200" as="geometry" />
        </mxCell>
        <mxCell id="ZPcoJ0gb0Kkz47UQnkc6-11" value="- cilindrada: number&lt;div&gt;&lt;br/&gt;&lt;/div&gt;" style="text;strokeColor=none;fillColor=none;align=left;verticalAlign=top;spacingLeft=4;spacingRight=4;overflow=hidden;rotatable=0;points=[[0,0.5],[1,0.5]];portConstraint=eastwest;whiteSpace=wrap;html=1;" vertex="1" parent="ZPcoJ0gb0Kkz47UQnkc6-10">
          <mxGeometry y="26" width="250" height="26" as="geometry" />
        </mxCell>
        <mxCell id="ZPcoJ0gb0Kkz47UQnkc6-12" value="" style="line;strokeWidth=1;fillColor=none;align=left;verticalAlign=middle;spacingTop=-1;spacingLeft=3;spacingRight=3;rotatable=0;labelPosition=right;points=[];portConstraint=eastwest;strokeColor=inherit;" vertex="1" parent="ZPcoJ0gb0Kkz47UQnkc6-10">
          <mxGeometry y="52" width="250" height="8" as="geometry" />
        </mxCell>
        <mxCell id="ZPcoJ0gb0Kkz47UQnkc6-13" value="+constructor (cilindrada:number)&lt;div&gt;&lt;br&gt;&lt;/div&gt;&lt;div&gt;+ consultarCilindrada(): number&lt;/div&gt;&lt;div&gt;&lt;br&gt;&lt;/div&gt;&lt;div&gt;+ consultarBateria(): void&lt;/div&gt;" style="text;strokeColor=none;fillColor=none;align=left;verticalAlign=top;spacingLeft=4;spacingRight=4;overflow=hidden;rotatable=0;points=[[0,0.5],[1,0.5]];portConstraint=eastwest;whiteSpace=wrap;html=1;" vertex="1" parent="ZPcoJ0gb0Kkz47UQnkc6-10">
          <mxGeometry y="60" width="250" height="140" as="geometry" />
        </mxCell>
        <mxCell id="ZPcoJ0gb0Kkz47UQnkc6-14" value="Camioneta" style="swimlane;fontStyle=1;align=center;verticalAlign=top;childLayout=stackLayout;horizontal=1;startSize=26;horizontalStack=0;resizeParent=1;resizeParentMax=0;resizeLast=0;collapsible=1;marginBottom=0;whiteSpace=wrap;html=1;" vertex="1" parent="1">
          <mxGeometry x="480" y="320" width="240" height="200" as="geometry" />
        </mxCell>
        <mxCell id="ZPcoJ0gb0Kkz47UQnkc6-15" value="- tieneEnganche: bool&lt;br&gt;&lt;div&gt;- numeroPuertas: number&amp;nbsp;&lt;/div&gt;" style="text;strokeColor=none;fillColor=none;align=left;verticalAlign=top;spacingLeft=4;spacingRight=4;overflow=hidden;rotatable=0;points=[[0,0.5],[1,0.5]];portConstraint=eastwest;whiteSpace=wrap;html=1;" vertex="1" parent="ZPcoJ0gb0Kkz47UQnkc6-14">
          <mxGeometry y="26" width="240" height="44" as="geometry" />
        </mxCell>
        <mxCell id="ZPcoJ0gb0Kkz47UQnkc6-16" value="" style="line;strokeWidth=1;fillColor=none;align=left;verticalAlign=middle;spacingTop=-1;spacingLeft=3;spacingRight=3;rotatable=0;labelPosition=right;points=[];portConstraint=eastwest;strokeColor=inherit;" vertex="1" parent="ZPcoJ0gb0Kkz47UQnkc6-14">
          <mxGeometry y="70" width="240" height="8" as="geometry" />
        </mxCell>
        <mxCell id="ZPcoJ0gb0Kkz47UQnkc6-17" value="+ constructor (tieneEnganche:bool, numeroPuertas:number)&lt;br&gt;&lt;div&gt;&lt;br&gt;&lt;/div&gt;&lt;div&gt;+ consultarNumeroDePuertas():number&lt;/div&gt;" style="text;strokeColor=none;fillColor=none;align=left;verticalAlign=top;spacingLeft=4;spacingRight=4;overflow=hidden;rotatable=0;points=[[0,0.5],[1,0.5]];portConstraint=eastwest;whiteSpace=wrap;html=1;" vertex="1" parent="ZPcoJ0gb0Kkz47UQnkc6-14">
          <mxGeometry y="78" width="240" height="122" as="geometry" />
        </mxCell>
        <mxCell id="ZPcoJ0gb0Kkz47UQnkc6-18" value="" style="endArrow=block;endSize=16;endFill=0;html=1;rounded=0;entryX=0.497;entryY=1.003;entryDx=0;entryDy=0;entryPerimeter=0;exitX=0.5;exitY=0;exitDx=0;exitDy=0;" edge="1" parent="1" source="ZPcoJ0gb0Kkz47UQnkc6-10" target="ZPcoJ0gb0Kkz47UQnkc6-8">
          <mxGeometry width="160" relative="1" as="geometry">
            <mxPoint x="140" y="190" as="sourcePoint" />
            <mxPoint x="410" y="240" as="targetPoint" />
            <Array as="points">
              <mxPoint x="195" y="280" />
              <mxPoint x="400" y="280" />
            </Array>
          </mxGeometry>
        </mxCell>
        <mxCell id="ZPcoJ0gb0Kkz47UQnkc6-19" value="" style="endArrow=block;endSize=16;endFill=0;html=1;rounded=0;entryX=0.499;entryY=1.004;entryDx=0;entryDy=0;entryPerimeter=0;exitX=0.5;exitY=0;exitDx=0;exitDy=0;" edge="1" parent="1" target="ZPcoJ0gb0Kkz47UQnkc6-8">
          <mxGeometry width="160" relative="1" as="geometry">
            <mxPoint x="559.5" y="320" as="sourcePoint" />
            <mxPoint x="720.5" y="223" as="targetPoint" />
            <Array as="points">
              <mxPoint x="559.5" y="280" />
              <mxPoint x="399.5" y="280" />
            </Array>
          </mxGeometry>
        </mxCell>
        <mxCell id="ZPcoJ0gb0Kkz47UQnkc6-22" value="«interface»&lt;br&gt;&lt;b&gt;Electrico&lt;/b&gt;" style="html=1;whiteSpace=wrap;" vertex="1" parent="1">
          <mxGeometry x="-80" y="190" width="160" height="30" as="geometry" />
        </mxCell>
        <mxCell id="ZPcoJ0gb0Kkz47UQnkc6-23" value="+consultarBateria(): void" style="html=1;whiteSpace=wrap;" vertex="1" parent="1">
          <mxGeometry x="-80" y="220" width="160" height="30" as="geometry" />
        </mxCell>
        <mxCell id="ZPcoJ0gb0Kkz47UQnkc6-25" value="" style="endArrow=block;dashed=1;endFill=0;endSize=12;html=1;rounded=0;exitX=0;exitY=0.5;exitDx=0;exitDy=0;" edge="1" parent="1" source="ZPcoJ0gb0Kkz47UQnkc6-13">
          <mxGeometry width="160" relative="1" as="geometry">
            <mxPoint x="-90" y="170" as="sourcePoint" />
            <mxPoint y="250" as="targetPoint" />
            <Array as="points">
              <mxPoint y="450" />
            </Array>
          </mxGeometry>
        </mxCell>
      </root>
    </mxGraphModel>
  </diagram>
</mxfile>
